<?xml version="1.0" encoding="UTF-8" standalone="no"?>
<!-- Created with Inkscape (http://www.inkscape.org/) -->

<svg
   width="145mm"
   height="73mm"
   viewBox="0 0 145 73"
   version="1.1"
   id="svg5"
   inkscape:version="1.2.2 (b0a8486541, 2022-12-01)"
   sodipodi:docname="segment_tree.svg"
   xmlns:inkscape="http://www.inkscape.org/namespaces/inkscape"
   xmlns:sodipodi="http://sodipodi.sourceforge.net/DTD/sodipodi-0.dtd"
   xmlns="http://www.w3.org/2000/svg"
   xmlns:svg="http://www.w3.org/2000/svg">
  <sodipodi:namedview
     id="namedview7"
     pagecolor="#ffffff"
     bordercolor="#000000"
     borderopacity="0.25"
     inkscape:showpageshadow="2"
     inkscape:pageopacity="0.0"
     inkscape:pagecheckerboard="0"
     inkscape:deskcolor="#d1d1d1"
     inkscape:document-units="mm"
     showgrid="true"
     showguides="true"
     inkscape:zoom="1.6819304"
     inkscape:cx="275.87348"
     inkscape:cy="195.31129"
     inkscape:window-width="1560"
     inkscape:window-height="992"
     inkscape:window-x="0"
     inkscape:window-y="25"
     inkscape:window-maximized="1"
     inkscape:current-layer="layer1">
    <inkscape:grid
       type="xygrid"
       id="grid1877"
       units="mm"
       spacingx="2.5"
       spacingy="2.5"
       originx="0"
       originy="0"
       enabled="false" />
    <sodipodi:guide
       position="54.531318,-40.818847"
       orientation="0,-1"
       id="guide5382"
       inkscape:locked="false" />
  </sodipodi:namedview>
  <defs
     id="defs2">
    <clipPath
       id="clipPath3858">
      <path
         clip-rule="nonzero"
         d="m 14,7 h 7 v 10.21875 h -7 z m 0,0"
         id="path7818" />
    </clipPath>
    <clipPath
       id="clipPath2164">
      <path
         clip-rule="nonzero"
         d="m 48,0 h 9.878906 V 15 H 48 Z m 0,0"
         id="path8998" />
    </clipPath>
    <clipPath
       id="clipPath6542">
      <path
         clip-rule="nonzero"
         d="m 14,7 h 7 v 10.21875 h -7 z m 0,0"
         id="path2860" />
    </clipPath>
    <clipPath
       id="clipPath2318">
      <path
         clip-rule="nonzero"
         d="m 49,0 h 8.878906 V 15 H 49 Z m 0,0"
         id="path9076" />
    </clipPath>
    <clipPath
       id="clipPath6833">
      <path
         clip-rule="nonzero"
         d="m 14,7 h 7 v 10.21875 h -7 z m 0,0"
         id="path1141" />
    </clipPath>
    <clipPath
       id="clipPath2931">
      <path
         clip-rule="nonzero"
         d="m 49,0 h 8.878906 V 15 H 49 Z m 0,0"
         id="path6724" />
    </clipPath>
    <clipPath
       id="clipPath100">
      <path
         clip-rule="nonzero"
         d="m 14,7 h 7 v 10.21875 h -7 z m 0,0"
         id="path7022" />
    </clipPath>
    <clipPath
       id="clipPath4299">
      <path
         clip-rule="nonzero"
         d="M 0,0 H 9 V 13.320312 H 0 Z m 0,0"
         id="path7854" />
    </clipPath>
    <clipPath
       id="clipPath4434">
      <path
         clip-rule="nonzero"
         d="M 1,0 H 8 V 13.320312 H 1 Z m 0,0"
         id="path7768" />
    </clipPath>
    <clipPath
       id="clipPath8920">
      <path
         clip-rule="nonzero"
         d="M 0,0 H 9 V 13.320312 H 0 Z m 0,0"
         id="path6192" />
    </clipPath>
    <clipPath
       id="clipPath4166">
      <path
         clip-rule="nonzero"
         d="M 0,0 H 9 V 13.320312 H 0 Z m 0,0"
         id="path5116" />
    </clipPath>
    <clipPath
       id="clipPath8083">
      <path
         clip-rule="nonzero"
         d="M 0,0 H 9 V 13.320312 H 0 Z m 0,0"
         id="path3464" />
    </clipPath>
    <clipPath
       id="clipPath7587">
      <path
         clip-rule="nonzero"
         d="M 0,0 H 9 V 13.320312 H 0 Z m 0,0"
         id="path573" />
    </clipPath>
    <clipPath
       id="clipPath3728">
      <path
         clip-rule="nonzero"
         d="M 0,0 H 9 V 13.320312 H 0 Z m 0,0"
         id="path7506" />
    </clipPath>
    <clipPath
       id="clipPath6582">
      <path
         clip-rule="nonzero"
         d="M 0,0 H 9 V 13.320312 H 0 Z m 0,0"
         id="path9539" />
    </clipPath>
    <clipPath
       id="clipPath5634">
      <path
         clip-rule="nonzero"
         d="M 1,0 H 18.953125 V 13.320312 H 1 Z m 0,0"
         id="path3540" />
    </clipPath>
    <clipPath
       id="clipPath6222">
      <path
         clip-rule="nonzero"
         d="M 1,0 H 18 V 13.320312 H 1 Z m 0,0"
         id="path2553" />
    </clipPath>
    <clipPath
       id="clipPath7780">
      <path
         clip-rule="nonzero"
         d="M 0,0 H 10 V 12.914062 H 0 Z m 0,0"
         id="path6306" />
    </clipPath>
    <clipPath
       id="clipPath3048">
      <path
         clip-rule="nonzero"
         d="m 10,2 h 8 v 10.914062 h -8 z m 0,0"
         id="path9805" />
    </clipPath>
    <clipPath
       id="clipPath4393">
      <path
         clip-rule="nonzero"
         d="M 0,0 H 10 V 12.914062 H 0 Z m 0,0"
         id="path362" />
    </clipPath>
    <clipPath
       id="clipPath2722">
      <path
         clip-rule="nonzero"
         d="m 10,2 h 8 v 10.914062 h -8 z m 0,0"
         id="path7783" />
    </clipPath>
  </defs>
  <g
     inkscape:label="Layer 1"
     inkscape:groupmode="layer"
     id="layer1">
    <rect
       style="font-variation-settings:normal;opacity:1;fill:#ffffff;fill-opacity:1;stroke:#000000;stroke-width:0.4;stroke-linecap:butt;stroke-linejoin:miter;stroke-miterlimit:4;stroke-dasharray:none;stroke-dashoffset:0;stroke-opacity:1;stop-color:#000000;stop-opacity:1"
       id="rect2244"
       width="10"
       height="10"
       x="5"
       y="42.5"
       ry="1" />
    <rect
       style="font-variation-settings:normal;opacity:1;fill:#ffffff;fill-opacity:1;stroke:#000000;stroke-width:0.4;stroke-linecap:butt;stroke-linejoin:miter;stroke-miterlimit:4;stroke-dasharray:none;stroke-dashoffset:0;stroke-opacity:1;stop-color:#000000;stop-opacity:1"
       id="rect2244-3"
       width="10"
       height="10"
       x="15"
       y="42.5"
       ry="1" />
    <rect
       style="font-variation-settings:normal;opacity:1;fill:#cccccc;fill-opacity:1;stroke:#000000;stroke-width:0.4;stroke-linecap:butt;stroke-linejoin:miter;stroke-miterlimit:4;stroke-dasharray:none;stroke-dashoffset:0;stroke-opacity:1;stop-color:#000000;stop-opacity:1"
       id="rect2244-6"
       width="10"
       height="10"
       x="25"
       y="42.5"
       ry="1" />
    <rect
       style="font-variation-settings:normal;opacity:1;fill:#cccccc;fill-opacity:1;stroke:#000000;stroke-width:0.4;stroke-linecap:butt;stroke-linejoin:miter;stroke-miterlimit:4;stroke-dasharray:none;stroke-dashoffset:0;stroke-opacity:1;stop-color:#000000;stop-opacity:1"
       id="rect2244-5"
       width="10"
       height="10"
       x="35"
       y="42.5"
       ry="1" />
    <rect
       style="font-variation-settings:normal;opacity:1;fill:#ffffff;fill-opacity:1;stroke:#000000;stroke-width:0.4;stroke-linecap:butt;stroke-linejoin:miter;stroke-miterlimit:4;stroke-dasharray:none;stroke-dashoffset:0;stroke-opacity:1;stop-color:#000000;stop-opacity:1"
       id="rect2244-3-6"
       width="10"
       height="10"
       x="45"
       y="42.5"
       ry="1" />
    <rect
       style="font-variation-settings:normal;opacity:1;fill:#ffffff;fill-opacity:1;stroke:#000000;stroke-width:0.4;stroke-linecap:butt;stroke-linejoin:miter;stroke-miterlimit:4;stroke-dasharray:none;stroke-dashoffset:0;stroke-opacity:1;stop-color:#000000;stop-opacity:1"
       id="rect2244-6-2"
       width="10"
       height="10"
       x="55"
       y="42.5"
       ry="1" />
    <rect
       style="font-variation-settings:normal;opacity:1;fill:#ffffff;fill-opacity:1;stroke:#000000;stroke-width:0.4;stroke-linecap:butt;stroke-linejoin:miter;stroke-miterlimit:4;stroke-dasharray:none;stroke-dashoffset:0;stroke-opacity:1;stop-color:#000000;stop-opacity:1"
       id="rect2244-9"
       width="10"
       height="10"
       x="65"
       y="42.5"
       ry="1" />
    <rect
       style="font-variation-settings:normal;opacity:1;fill:#ffffff;fill-opacity:1;stroke:#000000;stroke-width:0.4;stroke-linecap:butt;stroke-linejoin:miter;stroke-miterlimit:4;stroke-dasharray:none;stroke-dashoffset:0;stroke-opacity:1;stop-color:#000000;stop-opacity:1"
       id="rect2244-3-1"
       width="10"
       height="10"
       x="75"
       y="42.5"
       ry="1" />
    <rect
       style="font-variation-settings:normal;opacity:1;fill:#ffffff;fill-opacity:1;stroke:#000000;stroke-width:0.4;stroke-linecap:butt;stroke-linejoin:miter;stroke-miterlimit:4;stroke-dasharray:none;stroke-dashoffset:0;stroke-opacity:1;stop-color:#000000;stop-opacity:1"
       id="rect2244-6-27"
       width="10"
       height="10"
       x="85"
       y="42.5"
       ry="1" />
    <rect
       style="font-variation-settings:normal;opacity:1;fill:#ffffff;fill-opacity:1;stroke:#000000;stroke-width:0.4;stroke-linecap:butt;stroke-linejoin:miter;stroke-miterlimit:4;stroke-dasharray:none;stroke-dashoffset:0;stroke-opacity:1;stop-color:#000000;stop-opacity:1"
       id="rect2244-9-0"
       width="10"
       height="10"
       x="95"
       y="42.5"
       ry="1" />
    <rect
       style="font-variation-settings:normal;opacity:1;fill:#cccccc;fill-opacity:1;stroke:#000000;stroke-width:0.4;stroke-linecap:butt;stroke-linejoin:miter;stroke-miterlimit:4;stroke-dasharray:none;stroke-dashoffset:0;stroke-opacity:1;stop-color:#000000;stop-opacity:1"
       id="rect2244-3-1-9"
       width="10"
       height="10"
       x="105"
       y="42.5"
       ry="1" />
    <rect
       style="font-variation-settings:normal;opacity:1;fill:#cccccc;fill-opacity:1;stroke:#000000;stroke-width:0.4;stroke-linecap:butt;stroke-linejoin:miter;stroke-miterlimit:4;stroke-dasharray:none;stroke-dashoffset:0;stroke-opacity:1;stop-color:#000000;stop-opacity:1"
       id="rect3385"
       width="20"
       height="10"
       x="5"
       y="30"
       ry="1" />
    <rect
       style="font-variation-settings:normal;opacity:1;fill:#ffffff;fill-opacity:1;stroke:#000000;stroke-width:0.4;stroke-linecap:butt;stroke-linejoin:miter;stroke-miterlimit:4;stroke-dasharray:none;stroke-dashoffset:0;stroke-opacity:1;stop-color:#000000;stop-opacity:1"
       id="rect3387"
       width="20"
       height="10"
       x="25"
       y="30"
       ry="1" />
    <rect
       style="font-variation-settings:normal;opacity:1;fill:#ffffff;fill-opacity:1;stroke:#000000;stroke-width:0.4;stroke-linecap:butt;stroke-linejoin:miter;stroke-miterlimit:4;stroke-dasharray:none;stroke-dashoffset:0;stroke-opacity:1;stop-color:#000000;stop-opacity:1"
       id="rect3389"
       width="20"
       height="10"
       x="45"
       y="30"
       ry="1" />
    <rect
       style="font-variation-settings:normal;opacity:1;fill:#ffffff;fill-opacity:1;stroke:#000000;stroke-width:0.4;stroke-linecap:butt;stroke-linejoin:miter;stroke-miterlimit:4;stroke-dasharray:none;stroke-dashoffset:0;stroke-opacity:1;stop-color:#000000;stop-opacity:1"
       id="rect3391"
       width="20"
       height="10"
       x="65"
       y="30"
       ry="1" />
    <rect
       style="font-variation-settings:normal;opacity:1;fill:#cccccc;fill-opacity:1;stroke:#000000;stroke-width:0.4;stroke-linecap:butt;stroke-linejoin:miter;stroke-miterlimit:4;stroke-dasharray:none;stroke-dashoffset:0;stroke-opacity:1;stop-color:#000000;stop-opacity:1"
       id="rect3393"
       width="20"
       height="10"
       x="85"
       y="30"
       ry="1" />
    <rect
       style="font-variation-settings:normal;opacity:1;fill:#ffffff;fill-opacity:1;stroke:#000000;stroke-width:0.4;stroke-linecap:butt;stroke-linejoin:miter;stroke-miterlimit:4;stroke-dasharray:none;stroke-dashoffset:0;stroke-opacity:1;stop-color:#000000;stop-opacity:1"
       id="rect3395"
       width="40"
       height="10"
       x="5"
       y="17.5"
       ry="1" />
    <rect
       style="font-variation-settings:normal;opacity:1;fill:#cccccc;fill-opacity:1;stroke:#000000;stroke-width:0.4;stroke-linecap:butt;stroke-linejoin:miter;stroke-miterlimit:4;stroke-dasharray:none;stroke-dashoffset:0;stroke-opacity:1;stop-color:#000000;stop-opacity:1"
       id="rect3397"
       width="40"
       height="10"
       x="45"
       y="17.5"
       ry="1" />
    <rect
       style="font-variation-settings:normal;opacity:1;fill:#ffffff;fill-opacity:1;stroke:#000000;stroke-width:0.4;stroke-linecap:butt;stroke-linejoin:miter;stroke-miterlimit:4;stroke-dasharray:none;stroke-dashoffset:0;stroke-opacity:1;stop-color:#000000;stop-opacity:1"
       id="rect3399"
       width="80"
       height="10"
       x="5"
       y="5"
       ry="1" />
    <path
       style="font-variation-settings:normal;opacity:1;fill:none;fill-opacity:1;stroke:#000000;stroke-width:0.4;stroke-linecap:butt;stroke-linejoin:miter;stroke-miterlimit:4;stroke-dasharray:none;stroke-dashoffset:0;stroke-opacity:1;stop-color:#000000;stop-opacity:1"
       d="m 5,57.5 h 110 v 0"
       id="path3567" />
    <path
       style="font-variation-settings:normal;opacity:1;fill:none;fill-opacity:1;stroke:#000000;stroke-width:0.4;stroke-linecap:butt;stroke-linejoin:miter;stroke-miterlimit:4;stroke-dasharray:none;stroke-dashoffset:0;stroke-opacity:1;stop-color:#000000;stop-opacity:1"
       d="m 5,55 c 0,5 0,5 0,5 v 0"
       id="path4295" />
    <path
       style="font-variation-settings:normal;opacity:1;fill:none;fill-opacity:1;stroke:#000000;stroke-width:0.4;stroke-linecap:butt;stroke-linejoin:miter;stroke-miterlimit:4;stroke-dasharray:none;stroke-dashoffset:0;stroke-opacity:1;stop-color:#000000;stop-opacity:1"
       d="m 14.999998,55 v 5"
       id="path4297" />
    <path
       style="font-variation-settings:normal;opacity:1;fill:none;fill-opacity:1;stroke:#000000;stroke-width:0.4;stroke-linecap:butt;stroke-linejoin:miter;stroke-miterlimit:4;stroke-dasharray:none;stroke-dashoffset:0;stroke-opacity:1;stop-color:#000000;stop-opacity:1"
       d="m 24.999999,55 v 5"
       id="path4299" />
    <path
       style="font-variation-settings:normal;opacity:1;fill:none;fill-opacity:1;stroke:#000000;stroke-width:0.4;stroke-linecap:butt;stroke-linejoin:miter;stroke-miterlimit:4;stroke-dasharray:none;stroke-dashoffset:0;stroke-opacity:1;stop-color:#000000;stop-opacity:1"
       d="m 35,55 v 5"
       id="path4301" />
    <path
       style="font-variation-settings:normal;opacity:1;fill:none;fill-opacity:1;stroke:#000000;stroke-width:0.4;stroke-linecap:butt;stroke-linejoin:miter;stroke-miterlimit:4;stroke-dasharray:none;stroke-dashoffset:0;stroke-opacity:1;stop-color:#000000;stop-opacity:1"
       d="m 44.999999,55 v 5"
       id="path4303" />
    <path
       style="font-variation-settings:normal;opacity:1;fill:none;fill-opacity:1;stroke:#000000;stroke-width:0.4;stroke-linecap:butt;stroke-linejoin:miter;stroke-miterlimit:4;stroke-dasharray:none;stroke-dashoffset:0;stroke-opacity:1;stop-color:#000000;stop-opacity:1"
       d="m 55,55 v 5"
       id="path4305" />
    <path
       style="font-variation-settings:normal;opacity:1;fill:none;fill-opacity:1;stroke:#000000;stroke-width:0.4;stroke-linecap:butt;stroke-linejoin:miter;stroke-miterlimit:4;stroke-dasharray:none;stroke-dashoffset:0;stroke-opacity:1;stop-color:#000000;stop-opacity:1"
       d="m 64.999998,55 v 5"
       id="path4307" />
    <path
       style="font-variation-settings:normal;opacity:1;fill:none;fill-opacity:1;stroke:#000000;stroke-width:0.4;stroke-linecap:butt;stroke-linejoin:miter;stroke-miterlimit:4;stroke-dasharray:none;stroke-dashoffset:0;stroke-opacity:1;stop-color:#000000;stop-opacity:1"
       d="m 74.999999,55 v 5"
       id="path4309" />
    <path
       style="font-variation-settings:normal;fill:none;fill-opacity:1;stroke:#000000;stroke-width:0.4;stroke-linecap:butt;stroke-linejoin:miter;stroke-miterlimit:4;stroke-dasharray:none;stroke-dashoffset:0;stroke-opacity:1;stop-color:#000000"
       d="m 84.9,55 v 5"
       id="path4309-6" />
    <path
       style="font-variation-settings:normal;fill:none;fill-opacity:1;stroke:#000000;stroke-width:0.4;stroke-linecap:butt;stroke-linejoin:miter;stroke-miterlimit:4;stroke-dasharray:none;stroke-dashoffset:0;stroke-opacity:1;stop-color:#000000"
       d="m 94.9,55 v 5"
       id="path4309-6-2" />
    <path
       style="font-variation-settings:normal;fill:none;fill-opacity:1;stroke:#000000;stroke-width:0.4;stroke-linecap:butt;stroke-linejoin:miter;stroke-miterlimit:4;stroke-dasharray:none;stroke-dashoffset:0;stroke-opacity:1;stop-color:#000000"
       d="m 104.9,55 v 5"
       id="path4309-6-6" />
    <path
       style="font-variation-settings:normal;fill:none;fill-opacity:1;stroke:#000000;stroke-width:0.4;stroke-linecap:butt;stroke-linejoin:miter;stroke-miterlimit:4;stroke-dasharray:none;stroke-dashoffset:0;stroke-opacity:1;stop-color:#000000"
       d="m 115,55 v 5"
       id="path4309-6-1" />
    <g
       inkscape:label=""
       transform="translate(120.65894,19.958896)"
       id="g3996">
      <g
         fill="#000000"
         fill-opacity="1"
         id="g26"
         transform="matrix(0.352778,0,0,0.352778,-0.336241,-0.00374823)">
        <g
           id="use24"
           transform="translate(0,14.12)">
          <path
             d="m 7.578125,-12.515625 c 0.1875,-0.78125 0.25,-1 2.0625,-1 0.5625,0 0.703125,0 0.703125,-0.390625 0,-0.203125 -0.21875,-0.203125 -0.3125,-0.203125 -0.40625,0 -0.875,0.04687 -1.296875,0.04687 H 5.96875 c -0.390625,0 -0.84375,-0.04687 -1.234375,-0.04687 -0.171875,0 -0.390625,0 -0.390625,0.390625 0,0.203125 0.1875,0.203125 0.484375,0.203125 1.265625,0 1.265625,0.171875 1.265625,0.40625 0,0.03125 0,0.15625 -0.078125,0.46875 L 3.21875,-1.53125 C 3.03125,-0.8125 3,-0.59375 1.546875,-0.59375 c -0.390625,0 -0.59375,0 -0.59375,0.359375 C 0.953125,0 1.078125,0 1.484375,0 h 9.25 c 0.46875,0 0.484375,-0.015625 0.625,-0.390625 l 1.59375,-4.40625 c 0.04687,-0.09375 0.07813,-0.21875 0.07813,-0.28125 0,-0.125 -0.09375,-0.203125 -0.203125,-0.203125 -0.01563,0 -0.125,0 -0.171875,0.078125 C 12.625,-5.1875 12.625,-5.140625 12.453125,-4.75 11.796875,-2.9375 10.859375,-0.59375 7.375,-0.59375 H 5.390625 c -0.28125,0 -0.328125,0 -0.453125,-0.03125 -0.234375,-0.015625 -0.25,-0.0625 -0.25,-0.21875 0,-0.140625 0.046875,-0.265625 0.078125,-0.453125 z m 0,0"
             id="path48" />
        </g>
      </g>
      <g
         clip-path="url(#clipPath3858)"
         id="g32"
         transform="matrix(0.352778,0,0,0.352778,-0.336241,-0.00374823)">
        <g
           fill="#000000"
           fill-opacity="1"
           id="g30">
          <g
             id="use28"
             transform="translate(13.765,17.219)">
            <path
               d="m 4.03125,-9.59375 c 0.015625,-0.0625 0.046875,-0.140625 0.046875,-0.21875 0,-0.140625 -0.140625,-0.140625 -0.171875,-0.140625 -0.015625,0 -0.53125,0.046875 -0.796875,0.0625 C 2.875,-9.875 2.65625,-9.84375 2.390625,-9.828125 c -0.34375,0.03125 -0.4375,0.046875 -0.4375,0.296875 0,0.15625 0.140625,0.15625 0.28125,0.15625 0.734375,0 0.734375,0.125 0.734375,0.265625 0,0.0625 0,0.09375 -0.078125,0.34375 L 0.84375,-0.5625 c -0.0625,0.21875 -0.0625,0.25 -0.0625,0.328125 0,0.328125 0.25,0.375 0.390625,0.375 0.40625,0 0.484375,-0.3125 0.609375,-0.75 l 0.671875,-2.6875 c 1.03125,0.109375 1.65625,0.546875 1.65625,1.234375 0,0.078125 0,0.140625 -0.046875,0.359375 C 4,-1.484375 4,-1.3125 4,-1.25 c 0,0.828125 0.546875,1.390625 1.28125,1.390625 0.65625,0 1,-0.59375 1.109375,-0.796875 0.3125,-0.53125 0.5,-1.34375 0.5,-1.390625 0,-0.078125 -0.0625,-0.140625 -0.15625,-0.140625 -0.125,0 -0.140625,0.0625 -0.1875,0.296875 -0.203125,0.75 -0.515625,1.75 -1.234375,1.75 -0.296875,0 -0.484375,-0.140625 -0.484375,-0.6875 0,-0.28125 0.0625,-0.59375 0.125,-0.8125 C 5,-1.890625 5,-1.90625 5,-2.078125 c 0,-0.84375 -0.75,-1.328125 -2.078125,-1.5 0.515625,-0.3125 1.03125,-0.875 1.234375,-1.078125 0.828125,-0.921875 1.375,-1.375 2.046875,-1.375 0.328125,0 0.40625,0.078125 0.515625,0.171875 C 6.1875,-5.8125 5.984375,-5.4375 5.984375,-5.15625 c 0,0.34375 0.265625,0.46875 0.46875,0.46875 0.390625,0 0.734375,-0.328125 0.734375,-0.796875 0,-0.40625 -0.328125,-0.84375 -0.984375,-0.84375 -0.78125,0 -1.421875,0.5625 -2.4375,1.703125 -0.15625,0.171875 -0.6875,0.71875 -1.21875,0.921875 z m 0,0"
               id="path52" />
          </g>
        </g>
      </g>
      <g
         fill="#000000"
         fill-opacity="1"
         id="g36"
         transform="matrix(0.352778,0,0,0.352778,-0.336241,-0.00374823)">
        <g
           id="use34"
           transform="translate(27.790001,14.12)">
          <path
             d="m 13.28125,-6.625 c 0.3125,0 0.625,0 0.625,-0.359375 0,-0.375 -0.359375,-0.375 -0.703125,-0.375 H 1.65625 c -0.359375,0 -0.703125,0 -0.703125,0.375 0,0.359375 0.3125,0.359375 0.609375,0.359375 z m -0.07813,3.671875 c 0.34375,0 0.703125,0 0.703125,-0.375 0,-0.34375 -0.3125,-0.34375 -0.625,-0.34375 H 1.5625 c -0.296875,0 -0.609375,0 -0.609375,0.34375 0,0.375 0.34375,0.375 0.703125,0.375 z m 0,0"
             id="path56" />
        </g>
      </g>
      <g
         clip-path="url(#clipPath2164)"
         id="g42"
         transform="matrix(0.352778,0,0,0.352778,-0.336241,-0.00374823)">
        <g
           fill="#000000"
           fill-opacity="1"
           id="g40">
          <g
             id="use38"
             transform="translate(48.407043,14.12)">
            <path
               d="m 6.9375,-13.359375 c 0,-0.4375 -0.015625,-0.453125 -0.390625,-0.453125 L 0.40625,-4.046875 v 0.53125 H 5.75 v 2.03125 C 5.75,-0.75 5.703125,-0.53125 4.25,-0.53125 H 3.859375 V 0 c 0.671875,-0.046875 1.78125,-0.046875 2.484375,-0.046875 0.703125,0 1.8125,0 2.46875,0.046875 V -0.53125 H 8.421875 C 6.984375,-0.53125 6.9375,-0.75 6.9375,-1.484375 v -2.03125 h 2.109375 v -0.53125 H 6.9375 Z M 5.796875,-12 v 7.953125 h -4.96875 z m 0,0"
               id="path60" />
          </g>
        </g>
      </g>
    </g>
    <g
       inkscape:label=""
       transform="translate(120.65894,7.4588959)"
       id="g4942">
      <g
         fill="#000000"
         fill-opacity="1"
         id="g4918"
         transform="matrix(0.352778,0,0,0.352778,-0.336241,-0.00374823)">
        <g
           id="g4916"
           transform="translate(0,14.12)">
          <path
             d="m 7.578125,-12.515625 c 0.1875,-0.78125 0.25,-1 2.0625,-1 0.5625,0 0.703125,0 0.703125,-0.390625 0,-0.203125 -0.21875,-0.203125 -0.3125,-0.203125 -0.40625,0 -0.875,0.04687 -1.296875,0.04687 H 5.96875 c -0.390625,0 -0.84375,-0.04687 -1.234375,-0.04687 -0.171875,0 -0.390625,0 -0.390625,0.390625 0,0.203125 0.1875,0.203125 0.484375,0.203125 1.265625,0 1.265625,0.171875 1.265625,0.40625 0,0.03125 0,0.15625 -0.078125,0.46875 L 3.21875,-1.53125 C 3.03125,-0.8125 3,-0.59375 1.546875,-0.59375 c -0.390625,0 -0.59375,0 -0.59375,0.359375 C 0.953125,0 1.078125,0 1.484375,0 h 9.25 c 0.46875,0 0.484375,-0.015625 0.625,-0.390625 l 1.59375,-4.40625 c 0.04687,-0.09375 0.07813,-0.21875 0.07813,-0.28125 0,-0.125 -0.09375,-0.203125 -0.203125,-0.203125 -0.01563,0 -0.125,0 -0.171875,0.078125 C 12.625,-5.1875 12.625,-5.140625 12.453125,-4.75 11.796875,-2.9375 10.859375,-0.59375 7.375,-0.59375 H 5.390625 c -0.28125,0 -0.328125,0 -0.453125,-0.03125 -0.234375,-0.015625 -0.25,-0.0625 -0.25,-0.21875 0,-0.140625 0.046875,-0.265625 0.078125,-0.453125 z m 0,0"
             id="path4914" />
        </g>
      </g>
      <g
         clip-path="url(#clipPath6542)"
         id="g4926"
         transform="matrix(0.352778,0,0,0.352778,-0.336241,-0.00374823)">
        <g
           fill="#000000"
           fill-opacity="1"
           id="g4924">
          <g
             id="g4922"
             transform="translate(13.765,17.219)">
            <path
               d="m 4.03125,-9.59375 c 0.015625,-0.0625 0.046875,-0.140625 0.046875,-0.21875 0,-0.140625 -0.140625,-0.140625 -0.171875,-0.140625 -0.015625,0 -0.53125,0.046875 -0.796875,0.0625 C 2.875,-9.875 2.65625,-9.84375 2.390625,-9.828125 c -0.34375,0.03125 -0.4375,0.046875 -0.4375,0.296875 0,0.15625 0.140625,0.15625 0.28125,0.15625 0.734375,0 0.734375,0.125 0.734375,0.265625 0,0.0625 0,0.09375 -0.078125,0.34375 L 0.84375,-0.5625 c -0.0625,0.21875 -0.0625,0.25 -0.0625,0.328125 0,0.328125 0.25,0.375 0.390625,0.375 0.40625,0 0.484375,-0.3125 0.609375,-0.75 l 0.671875,-2.6875 c 1.03125,0.109375 1.65625,0.546875 1.65625,1.234375 0,0.078125 0,0.140625 -0.046875,0.359375 C 4,-1.484375 4,-1.3125 4,-1.25 c 0,0.828125 0.546875,1.390625 1.28125,1.390625 0.65625,0 1,-0.59375 1.109375,-0.796875 0.3125,-0.53125 0.5,-1.34375 0.5,-1.390625 0,-0.078125 -0.0625,-0.140625 -0.15625,-0.140625 -0.125,0 -0.140625,0.0625 -0.1875,0.296875 -0.203125,0.75 -0.515625,1.75 -1.234375,1.75 -0.296875,0 -0.484375,-0.140625 -0.484375,-0.6875 0,-0.28125 0.0625,-0.59375 0.125,-0.8125 C 5,-1.890625 5,-1.90625 5,-2.078125 c 0,-0.84375 -0.75,-1.328125 -2.078125,-1.5 0.515625,-0.3125 1.03125,-0.875 1.234375,-1.078125 0.828125,-0.921875 1.375,-1.375 2.046875,-1.375 0.328125,0 0.40625,0.078125 0.515625,0.171875 C 6.1875,-5.8125 5.984375,-5.4375 5.984375,-5.15625 c 0,0.34375 0.265625,0.46875 0.46875,0.46875 0.390625,0 0.734375,-0.328125 0.734375,-0.796875 0,-0.40625 -0.328125,-0.84375 -0.984375,-0.84375 -0.78125,0 -1.421875,0.5625 -2.4375,1.703125 -0.15625,0.171875 -0.6875,0.71875 -1.21875,0.921875 z m 0,0"
               id="path4920" />
          </g>
        </g>
      </g>
      <g
         fill="#000000"
         fill-opacity="1"
         id="g4932"
         transform="matrix(0.352778,0,0,0.352778,-0.336241,-0.00374823)">
        <g
           id="g4930"
           transform="translate(27.790001,14.12)">
          <path
             d="m 13.28125,-6.625 c 0.3125,0 0.625,0 0.625,-0.359375 0,-0.375 -0.359375,-0.375 -0.703125,-0.375 H 1.65625 c -0.359375,0 -0.703125,0 -0.703125,0.375 0,0.359375 0.3125,0.359375 0.609375,0.359375 z m -0.07813,3.671875 c 0.34375,0 0.703125,0 0.703125,-0.375 0,-0.34375 -0.3125,-0.34375 -0.625,-0.34375 H 1.5625 c -0.296875,0 -0.609375,0 -0.609375,0.34375 0,0.375 0.34375,0.375 0.703125,0.375 z m 0,0"
             id="path4928" />
        </g>
      </g>
      <g
         clip-path="url(#clipPath2318)"
         id="g4940"
         transform="matrix(0.352778,0,0,0.352778,-0.336241,-0.00374823)">
        <g
           fill="#000000"
           fill-opacity="1"
           id="g4938">
          <g
             id="g4936"
             transform="translate(48.407043,14.12)">
            <path
               d="m 5.625,-7.4375 c 1.296875,-0.65625 2.609375,-1.65625 2.609375,-3.234375 0,-1.890625 -1.8125,-2.984375 -3.484375,-2.984375 -1.875,0 -3.53125,1.359375 -3.53125,3.25 0,0.515625 0.125,1.40625 0.921875,2.1875 C 2.359375,-8.015625 3.21875,-7.390625 3.78125,-7 2.84375,-6.53125 0.6875,-5.390625 0.6875,-3.125 c 0,2.140625 2.015625,3.453125 4.015625,3.453125 2.21875,0 4.078125,-1.59375 4.078125,-3.6875 0,-1.890625 -1.265625,-2.75 -2.09375,-3.3125 z M 2.90625,-9.25 C 2.75,-9.359375 1.921875,-10 1.921875,-10.96875 c 0,-1.265625 1.296875,-2.203125 2.78125,-2.203125 1.640625,0 2.84375,1.15625 2.84375,2.5 0,1.90625 -2.15625,3.015625 -2.265625,3.015625 -0.015625,0 -0.03125,0 -0.203125,-0.125 z m 3.8125,4.234375 c 0.296875,0.21875 1.296875,0.90625 1.296875,2.171875 0,1.515625 -1.53125,2.671875 -3.265625,2.671875 -1.875,0 -3.296875,-1.34375 -3.296875,-2.96875 0,-1.625 1.25,-3 2.671875,-3.640625 z m 0,0"
               id="path4934" />
          </g>
        </g>
      </g>
    </g>
    <g
       inkscape:label=""
       transform="translate(120.65894,32.458896)"
       id="g5197">
      <g
         fill="#000000"
         fill-opacity="1"
         id="g5173"
         transform="matrix(0.352778,0,0,0.352778,-0.336241,-0.00374823)">
        <g
           id="g5171"
           transform="translate(0,14.12)">
          <path
             d="m 7.578125,-12.515625 c 0.1875,-0.78125 0.25,-1 2.0625,-1 0.5625,0 0.703125,0 0.703125,-0.390625 0,-0.203125 -0.21875,-0.203125 -0.3125,-0.203125 -0.40625,0 -0.875,0.04687 -1.296875,0.04687 H 5.96875 c -0.390625,0 -0.84375,-0.04687 -1.234375,-0.04687 -0.171875,0 -0.390625,0 -0.390625,0.390625 0,0.203125 0.1875,0.203125 0.484375,0.203125 1.265625,0 1.265625,0.171875 1.265625,0.40625 0,0.03125 0,0.15625 -0.078125,0.46875 L 3.21875,-1.53125 C 3.03125,-0.8125 3,-0.59375 1.546875,-0.59375 c -0.390625,0 -0.59375,0 -0.59375,0.359375 C 0.953125,0 1.078125,0 1.484375,0 h 9.25 c 0.46875,0 0.484375,-0.015625 0.625,-0.390625 l 1.59375,-4.40625 c 0.04687,-0.09375 0.07813,-0.21875 0.07813,-0.28125 0,-0.125 -0.09375,-0.203125 -0.203125,-0.203125 -0.01563,0 -0.125,0 -0.171875,0.078125 C 12.625,-5.1875 12.625,-5.140625 12.453125,-4.75 11.796875,-2.9375 10.859375,-0.59375 7.375,-0.59375 H 5.390625 c -0.28125,0 -0.328125,0 -0.453125,-0.03125 -0.234375,-0.015625 -0.25,-0.0625 -0.25,-0.21875 0,-0.140625 0.046875,-0.265625 0.078125,-0.453125 z m 0,0"
             id="path5169" />
        </g>
      </g>
      <g
         clip-path="url(#clipPath6833)"
         id="g5181"
         transform="matrix(0.352778,0,0,0.352778,-0.336241,-0.00374823)">
        <g
           fill="#000000"
           fill-opacity="1"
           id="g5179">
          <g
             id="g5177"
             transform="translate(13.765,17.219)">
            <path
               d="m 4.03125,-9.59375 c 0.015625,-0.0625 0.046875,-0.140625 0.046875,-0.21875 0,-0.140625 -0.140625,-0.140625 -0.171875,-0.140625 -0.015625,0 -0.53125,0.046875 -0.796875,0.0625 C 2.875,-9.875 2.65625,-9.84375 2.390625,-9.828125 c -0.34375,0.03125 -0.4375,0.046875 -0.4375,0.296875 0,0.15625 0.140625,0.15625 0.28125,0.15625 0.734375,0 0.734375,0.125 0.734375,0.265625 0,0.0625 0,0.09375 -0.078125,0.34375 L 0.84375,-0.5625 c -0.0625,0.21875 -0.0625,0.25 -0.0625,0.328125 0,0.328125 0.25,0.375 0.390625,0.375 0.40625,0 0.484375,-0.3125 0.609375,-0.75 l 0.671875,-2.6875 c 1.03125,0.109375 1.65625,0.546875 1.65625,1.234375 0,0.078125 0,0.140625 -0.046875,0.359375 C 4,-1.484375 4,-1.3125 4,-1.25 c 0,0.828125 0.546875,1.390625 1.28125,1.390625 0.65625,0 1,-0.59375 1.109375,-0.796875 0.3125,-0.53125 0.5,-1.34375 0.5,-1.390625 0,-0.078125 -0.0625,-0.140625 -0.15625,-0.140625 -0.125,0 -0.140625,0.0625 -0.1875,0.296875 -0.203125,0.75 -0.515625,1.75 -1.234375,1.75 -0.296875,0 -0.484375,-0.140625 -0.484375,-0.6875 0,-0.28125 0.0625,-0.59375 0.125,-0.8125 C 5,-1.890625 5,-1.90625 5,-2.078125 c 0,-0.84375 -0.75,-1.328125 -2.078125,-1.5 0.515625,-0.3125 1.03125,-0.875 1.234375,-1.078125 0.828125,-0.921875 1.375,-1.375 2.046875,-1.375 0.328125,0 0.40625,0.078125 0.515625,0.171875 C 6.1875,-5.8125 5.984375,-5.4375 5.984375,-5.15625 c 0,0.34375 0.265625,0.46875 0.46875,0.46875 0.390625,0 0.734375,-0.328125 0.734375,-0.796875 0,-0.40625 -0.328125,-0.84375 -0.984375,-0.84375 -0.78125,0 -1.421875,0.5625 -2.4375,1.703125 -0.15625,0.171875 -0.6875,0.71875 -1.21875,0.921875 z m 0,0"
               id="path5175" />
          </g>
        </g>
      </g>
      <g
         fill="#000000"
         fill-opacity="1"
         id="g5187"
         transform="matrix(0.352778,0,0,0.352778,-0.336241,-0.00374823)">
        <g
           id="g5185"
           transform="translate(27.790001,14.12)">
          <path
             d="m 13.28125,-6.625 c 0.3125,0 0.625,0 0.625,-0.359375 0,-0.375 -0.359375,-0.375 -0.703125,-0.375 H 1.65625 c -0.359375,0 -0.703125,0 -0.703125,0.375 0,0.359375 0.3125,0.359375 0.609375,0.359375 z m -0.07813,3.671875 c 0.34375,0 0.703125,0 0.703125,-0.375 0,-0.34375 -0.3125,-0.34375 -0.625,-0.34375 H 1.5625 c -0.296875,0 -0.609375,0 -0.609375,0.34375 0,0.375 0.34375,0.375 0.703125,0.375 z m 0,0"
             id="path5183" />
        </g>
      </g>
      <g
         clip-path="url(#clipPath2931)"
         id="g5195"
         transform="matrix(0.352778,0,0,0.352778,-0.336241,-0.00374823)">
        <g
           fill="#000000"
           fill-opacity="1"
           id="g5193">
          <g
             id="g5191"
             transform="translate(48.407043,14.12)">
            <path
               d="m 8.609375,-3.203125 h -0.375 c -0.203125,1.46875 -0.359375,1.71875 -0.453125,1.84375 -0.09375,0.15625 -1.578125,0.15625 -1.875,0.15625 H 1.9375 C 2.6875,-2 4.125,-3.46875 5.890625,-5.171875 c 1.25,-1.1875 2.71875,-2.59375 2.71875,-4.640625 0,-2.4375 -1.9375,-3.84375 -4.109375,-3.84375 -2.265625,0 -3.65625,2 -3.65625,3.859375 0,0.8125 0.609375,0.921875 0.84375,0.921875 0.21875,0 0.828125,-0.125 0.828125,-0.859375 0,-0.640625 -0.53125,-0.828125 -0.828125,-0.828125 -0.125,0 -0.234375,0.03125 -0.328125,0.0625 0.390625,-1.75 1.59375,-2.609375 2.859375,-2.609375 1.796875,0 2.96875,1.421875 2.96875,3.296875 0,1.796875 -1.046875,3.34375 -2.234375,4.6875 L 0.84375,-0.46875 V 0 H 8.125 Z m 0,0"
               id="path5189" />
          </g>
        </g>
      </g>
    </g>
    <g
       inkscape:label=""
       transform="translate(120.65894,44.958896)"
       id="g5473">
      <g
         fill="#000000"
         fill-opacity="1"
         id="g23"
         transform="matrix(0.352778,0,0,0.352778,-0.336241,-0.00374823)">
        <g
           id="use21"
           transform="translate(0,14.12)">
          <path
             d="m 7.578125,-12.515625 c 0.1875,-0.78125 0.25,-1 2.0625,-1 0.5625,0 0.703125,0 0.703125,-0.390625 0,-0.203125 -0.21875,-0.203125 -0.3125,-0.203125 -0.40625,0 -0.875,0.04687 -1.296875,0.04687 H 5.96875 c -0.390625,0 -0.84375,-0.04687 -1.234375,-0.04687 -0.171875,0 -0.390625,0 -0.390625,0.390625 0,0.203125 0.1875,0.203125 0.484375,0.203125 1.265625,0 1.265625,0.171875 1.265625,0.40625 0,0.03125 0,0.15625 -0.078125,0.46875 L 3.21875,-1.53125 C 3.03125,-0.8125 3,-0.59375 1.546875,-0.59375 c -0.390625,0 -0.59375,0 -0.59375,0.359375 C 0.953125,0 1.078125,0 1.484375,0 h 9.25 c 0.46875,0 0.484375,-0.015625 0.625,-0.390625 l 1.59375,-4.40625 c 0.04687,-0.09375 0.07813,-0.21875 0.07813,-0.28125 0,-0.125 -0.09375,-0.203125 -0.203125,-0.203125 -0.01563,0 -0.125,0 -0.171875,0.078125 C 12.625,-5.1875 12.625,-5.140625 12.453125,-4.75 11.796875,-2.9375 10.859375,-0.59375 7.375,-0.59375 H 5.390625 c -0.28125,0 -0.328125,0 -0.453125,-0.03125 -0.234375,-0.015625 -0.25,-0.0625 -0.25,-0.21875 0,-0.140625 0.046875,-0.265625 0.078125,-0.453125 z m 0,0"
             id="path43" />
        </g>
      </g>
      <g
         clip-path="url(#clipPath100)"
         id="g29"
         transform="matrix(0.352778,0,0,0.352778,-0.336241,-0.00374823)">
        <g
           fill="#000000"
           fill-opacity="1"
           id="g27">
          <g
             id="use25"
             transform="translate(13.765,17.219)">
            <path
               d="m 4.03125,-9.59375 c 0.015625,-0.0625 0.046875,-0.140625 0.046875,-0.21875 0,-0.140625 -0.140625,-0.140625 -0.171875,-0.140625 -0.015625,0 -0.53125,0.046875 -0.796875,0.0625 C 2.875,-9.875 2.65625,-9.84375 2.390625,-9.828125 c -0.34375,0.03125 -0.4375,0.046875 -0.4375,0.296875 0,0.15625 0.140625,0.15625 0.28125,0.15625 0.734375,0 0.734375,0.125 0.734375,0.265625 0,0.0625 0,0.09375 -0.078125,0.34375 L 0.84375,-0.5625 c -0.0625,0.21875 -0.0625,0.25 -0.0625,0.328125 0,0.328125 0.25,0.375 0.390625,0.375 0.40625,0 0.484375,-0.3125 0.609375,-0.75 l 0.671875,-2.6875 c 1.03125,0.109375 1.65625,0.546875 1.65625,1.234375 0,0.078125 0,0.140625 -0.046875,0.359375 C 4,-1.484375 4,-1.3125 4,-1.25 c 0,0.828125 0.546875,1.390625 1.28125,1.390625 0.65625,0 1,-0.59375 1.109375,-0.796875 0.3125,-0.53125 0.5,-1.34375 0.5,-1.390625 0,-0.078125 -0.0625,-0.140625 -0.15625,-0.140625 -0.125,0 -0.140625,0.0625 -0.1875,0.296875 -0.203125,0.75 -0.515625,1.75 -1.234375,1.75 -0.296875,0 -0.484375,-0.140625 -0.484375,-0.6875 0,-0.28125 0.0625,-0.59375 0.125,-0.8125 C 5,-1.890625 5,-1.90625 5,-2.078125 c 0,-0.84375 -0.75,-1.328125 -2.078125,-1.5 0.515625,-0.3125 1.03125,-0.875 1.234375,-1.078125 0.828125,-0.921875 1.375,-1.375 2.046875,-1.375 0.328125,0 0.40625,0.078125 0.515625,0.171875 C 6.1875,-5.8125 5.984375,-5.4375 5.984375,-5.15625 c 0,0.34375 0.265625,0.46875 0.46875,0.46875 0.390625,0 0.734375,-0.328125 0.734375,-0.796875 0,-0.40625 -0.328125,-0.84375 -0.984375,-0.84375 -0.78125,0 -1.421875,0.5625 -2.4375,1.703125 -0.15625,0.171875 -0.6875,0.71875 -1.21875,0.921875 z m 0,0"
               id="path47" />
          </g>
        </g>
      </g>
      <g
         fill="#000000"
         fill-opacity="1"
         id="g33"
         transform="matrix(0.352778,0,0,0.352778,-0.336241,-0.00374823)">
        <g
           id="use31"
           transform="translate(27.790001,14.12)">
          <path
             d="m 13.28125,-6.625 c 0.3125,0 0.625,0 0.625,-0.359375 0,-0.375 -0.359375,-0.375 -0.703125,-0.375 H 1.65625 c -0.359375,0 -0.703125,0 -0.703125,0.375 0,0.359375 0.3125,0.359375 0.609375,0.359375 z m -0.07813,3.671875 c 0.34375,0 0.703125,0 0.703125,-0.375 0,-0.34375 -0.3125,-0.34375 -0.625,-0.34375 H 1.5625 c -0.296875,0 -0.609375,0 -0.609375,0.34375 0,0.375 0.34375,0.375 0.703125,0.375 z m 0,0"
             id="path51" />
        </g>
      </g>
      <g
         fill="#000000"
         fill-opacity="1"
         id="g37"
         transform="matrix(0.352778,0,0,0.352778,-0.336241,-0.00374823)">
        <g
           id="use35"
           transform="translate(48.407043,14.12)">
          <path
             d="m 5.5,-13.203125 c 0,-0.4375 -0.03125,-0.453125 -0.3125,-0.453125 C 4.375,-12.6875 3.15625,-12.375 2,-12.328125 c -0.0625,0 -0.15625,0 -0.1875,0.03125 -0.015625,0.04687 -0.015625,0.09375 -0.015625,0.515625 0.640625,0 1.71875,-0.109375 2.546875,-0.609375 v 10.875 c 0,0.734375 -0.046875,0.984375 -1.828125,0.984375 H 1.90625 V 0 C 2.890625,-0.015625 3.921875,-0.046875 4.921875,-0.046875 5.90625,-0.046875 6.9375,-0.015625 7.9375,0 V -0.53125 H 7.3125 C 5.53125,-0.53125 5.5,-0.765625 5.5,-1.515625 Z m 0,0"
             id="path55" />
        </g>
      </g>
    </g>
    <g
       inkscape:label=""
       transform="translate(3.6081801,61.626121)"
       id="g6447">
      <g
         clip-path="url(#clipPath4299)"
         id="g16"
         transform="matrix(0.352778,0,0,0.352778,-0.275608,0.118974)">
        <g
           fill="#000000"
           fill-opacity="1"
           id="g14">
          <g
             id="use12"
             transform="translate(0,13.319)">
            <path
               d="m 8.671875,-6.625 c 0,-1.265625 -0.015625,-3.40625 -0.890625,-5.0625 -0.765625,-1.453125 -1.984375,-1.96875 -3.046875,-1.96875 -1,0 -2.25,0.453125 -3.046875,1.9375 -0.8125,1.5625 -0.90625,3.484375 -0.90625,5.09375 0,1.171875 0.03125,2.96875 0.671875,4.53125 0.875,2.140625 2.46875,2.421875 3.28125,2.421875 C 5.6875,0.328125 7.125,-0.0625 7.96875,-2.03125 8.59375,-3.453125 8.671875,-5.125 8.671875,-6.625 Z M 4.734375,0 C 3.40625,0 2.625,-1.140625 2.328125,-2.703125 c -0.21875,-1.21875 -0.21875,-3 -0.21875,-4.15625 0,-1.59375 0,-2.90625 0.265625,-4.171875 0.390625,-1.75 1.546875,-2.296875 2.359375,-2.296875 0.84375,0 1.9375,0.5625 2.328125,2.25 0.265625,1.1875 0.296875,2.5625 0.296875,4.21875 0,1.34375 0,3 -0.25,4.21875 C 6.671875,-0.390625 5.453125,0 4.734375,0 Z m 0,0"
               id="path22" />
          </g>
        </g>
      </g>
    </g>
    <g
       inkscape:label=""
       transform="translate(13.916859,61.68584)"
       id="g6704">
      <g
         clip-path="url(#clipPath4434)"
         id="g6702"
         transform="matrix(0.352778,0,0,0.352778,-0.633898,0.118974)">
        <g
           fill="#000000"
           fill-opacity="1"
           id="g6700">
          <g
             id="g6698"
             transform="translate(0,13.319)">
            <path
               d="m 5.5,-13.203125 c 0,-0.4375 -0.03125,-0.453125 -0.3125,-0.453125 C 4.375,-12.6875 3.15625,-12.375 2,-12.328125 c -0.0625,0 -0.15625,0 -0.1875,0.03125 -0.015625,0.04687 -0.015625,0.09375 -0.015625,0.515625 0.640625,0 1.71875,-0.109375 2.546875,-0.609375 v 10.875 c 0,0.734375 -0.046875,0.984375 -1.828125,0.984375 H 1.90625 V 0 C 2.890625,-0.015625 3.921875,-0.046875 4.921875,-0.046875 5.90625,-0.046875 6.9375,-0.015625 7.9375,0 V -0.53125 H 7.3125 C 5.53125,-0.53125 5.5,-0.765625 5.5,-1.515625 Z m 0,0"
               id="path6696" />
          </g>
        </g>
      </g>
    </g>
    <g
       inkscape:label=""
       transform="translate(23.630228,61.745327)"
       id="g6975">
      <g
         clip-path="url(#clipPath8920)"
         id="g6973"
         transform="matrix(0.352778,0,0,0.352778,-0.297656,0.118974)">
        <g
           fill="#000000"
           fill-opacity="1"
           id="g6971">
          <g
             id="g6969"
             transform="translate(0,13.319)">
            <path
               d="m 8.609375,-3.203125 h -0.375 c -0.203125,1.46875 -0.359375,1.71875 -0.453125,1.84375 -0.09375,0.15625 -1.578125,0.15625 -1.875,0.15625 H 1.9375 C 2.6875,-2 4.125,-3.46875 5.890625,-5.171875 c 1.25,-1.1875 2.71875,-2.59375 2.71875,-4.640625 0,-2.4375 -1.9375,-3.84375 -4.109375,-3.84375 -2.265625,0 -3.65625,2 -3.65625,3.859375 0,0.8125 0.609375,0.921875 0.84375,0.921875 0.21875,0 0.828125,-0.125 0.828125,-0.859375 0,-0.640625 -0.53125,-0.828125 -0.828125,-0.828125 -0.125,0 -0.234375,0.03125 -0.328125,0.0625 0.390625,-1.75 1.59375,-2.609375 2.859375,-2.609375 1.796875,0 2.96875,1.421875 2.96875,3.296875 0,1.796875 -1.046875,3.34375 -2.234375,4.6875 L 0.84375,-0.46875 V 0 H 8.125 Z m 0,0"
               id="path6967" />
          </g>
        </g>
      </g>
    </g>
    <g
       inkscape:label=""
       transform="translate(33.572352,61.685608)"
       id="g7260">
      <g
         clip-path="url(#clipPath4166)"
         id="g7258"
         transform="matrix(0.352778,0,0,0.352778,-0.242535,0.118974)">
        <g
           fill="#000000"
           fill-opacity="1"
           id="g7256">
          <g
             id="g7254"
             transform="translate(0,13.319)">
            <path
               d="m 4.5625,-7.015625 c 1.84375,0 2.640625,1.578125 2.640625,3.421875 0,2.484375 -1.3125,3.421875 -2.515625,3.421875 -1.09375,0 -2.875,-0.53125 -3.421875,-2.125 C 1.359375,-2.25 1.46875,-2.25 1.5625,-2.25 c 0.5,0 0.875,-0.328125 0.875,-0.875 0,-0.59375 -0.453125,-0.859375 -0.875,-0.859375 -0.34375,0 -0.875,0.15625 -0.875,0.921875 0,1.90625 1.859375,3.390625 4.046875,3.390625 2.28125,0 4.046875,-1.796875 4.046875,-3.90625 0,-2 -1.65625,-3.4375 -3.609375,-3.671875 1.5625,-0.328125 3.0625,-1.734375 3.0625,-3.609375 0,-1.609375 -1.625,-2.796875 -3.484375,-2.796875 -1.875,0 -3.53125,1.15625 -3.53125,2.8125 0,0.71875 0.53125,0.84375 0.8125,0.84375 0.421875,0 0.796875,-0.265625 0.796875,-0.796875 0,-0.546875 -0.375,-0.8125 -0.796875,-0.8125 -0.09375,0 -0.1875,0 -0.28125,0.04687 0.609375,-1.375 2.234375,-1.609375 2.953125,-1.609375 0.734375,0 2.09375,0.34375 2.09375,2.328125 0,0.578125 -0.078125,1.609375 -0.78125,2.515625 C 5.390625,-7.515625 4.6875,-7.484375 4,-7.421875 3.90625,-7.421875 3.421875,-7.375 3.34375,-7.375 3.203125,-7.359375 3.125,-7.328125 3.125,-7.1875 c 0,0.140625 0.015625,0.171875 0.421875,0.171875 z m 0,0"
               id="path7252" />
          </g>
        </g>
      </g>
    </g>
    <g
       inkscape:label=""
       transform="translate(43.475888,61.715924)"
       id="g8078">
      <g
         fill="#000000"
         fill-opacity="1"
         id="g11"
         transform="matrix(0.352778,0,0,0.352778,-0.143316,0.174096)">
        <g
           id="use9"
           transform="translate(0,13.319)">
          <path
             d="m 6.9375,-13.359375 c 0,-0.4375 -0.015625,-0.453125 -0.390625,-0.453125 L 0.40625,-4.046875 v 0.53125 H 5.75 v 2.03125 C 5.75,-0.75 5.703125,-0.53125 4.25,-0.53125 H 3.859375 V 0 c 0.671875,-0.046875 1.78125,-0.046875 2.484375,-0.046875 0.703125,0 1.8125,0 2.46875,0.046875 V -0.53125 H 8.421875 C 6.984375,-0.53125 6.9375,-0.75 6.9375,-1.484375 v -2.03125 h 2.109375 v -0.53125 H 6.9375 Z M 5.796875,-12 v 7.953125 h -4.96875 z m 0,0"
             id="path17" />
        </g>
      </g>
    </g>
    <g
       inkscape:label=""
       transform="translate(53.630229,61.689279)"
       id="g8385">
      <g
         clip-path="url(#clipPath8083)"
         id="g8383"
         transform="matrix(0.352778,0,0,0.352778,-0.297656,0.113462)">
        <g
           fill="#000000"
           fill-opacity="1"
           id="g8381">
          <g
             id="g8379"
             transform="translate(0,13.319)">
            <path
               d="m 2.359375,-12.078125 c 0.203125,0.07813 1.046875,0.34375 1.921875,0.34375 1.921875,0 2.96875,-1.03125 3.5625,-1.625 0,-0.171875 0,-0.28125 -0.125,-0.28125 -0.015625,0 -0.0625,0 -0.21875,0.09375 C 6.78125,-13.234375 5.921875,-13 4.890625,-13 c -0.609375,0 -1.546875,-0.07813 -2.5625,-0.53125 -0.21875,-0.109375 -0.265625,-0.109375 -0.28125,-0.109375 -0.109375,0 -0.125,0.03125 -0.125,0.4375 v 6 c 0,0.359375 0,0.46875 0.203125,0.46875 0.109375,0 0.140625,-0.046875 0.25,-0.1875 0.65625,-0.921875 1.578125,-1.3125 2.609375,-1.3125 0.71875,0 2.265625,0.453125 2.265625,3.984375 0,0.65625 0,1.859375 -0.625,2.796875 -0.515625,0.859375 -1.3125,1.28125 -2.203125,1.28125 -1.359375,0 -2.75,-0.9375 -3.125,-2.53125 0.09375,0.015625 0.25,0.0625 0.328125,0.0625 0.28125,0 0.796875,-0.140625 0.796875,-0.78125 0,-0.5625 -0.390625,-0.796875 -0.796875,-0.796875 -0.46875,0 -0.78125,0.296875 -0.78125,0.875 0,1.796875 1.421875,3.671875 3.625,3.671875 2.125,0 4.140625,-1.84375 4.140625,-4.5 C 8.609375,-6.65625 7,-8.578125 5,-8.578125 c -1.046875,0 -1.9375,0.390625 -2.640625,1.140625 z m 0,0"
               id="path8377" />
          </g>
        </g>
      </g>
    </g>
    <g
       inkscape:label=""
       transform="translate(63.408179,61.684682)"
       id="g8709">
      <g
         clip-path="url(#clipPath7587)"
         id="g8707"
         transform="matrix(0.352778,0,0,0.352778,-0.275608,0.118974)">
        <g
           fill="#000000"
           fill-opacity="1"
           id="g8705">
          <g
             id="g8703"
             transform="translate(0,13.319)">
            <path
               d="m 2.1875,-7.125 c 0,-4.9375 2.3125,-6.046875 3.65625,-6.046875 0.4375,0 1.484375,0.07813 1.90625,0.875 -0.328125,0 -0.953125,0 -0.953125,0.734375 0,0.546875 0.453125,0.734375 0.75,0.734375 0.171875,0 0.734375,-0.07813 0.734375,-0.78125 0,-1.296875 -1.03125,-2.046875 -2.453125,-2.046875 -2.46875,0 -5.046875,2.5625 -5.046875,7.125 0,5.625 2.34375,6.859375 3.984375,6.859375 2.015625,0 3.90625,-1.796875 3.90625,-4.5625 0,-2.578125 -1.671875,-4.46875 -3.78125,-4.46875 -1.25,0 -2.1875,0.828125 -2.703125,2.28125 z m 2.578125,6.953125 c -2.53125,0 -2.53125,-3.796875 -2.53125,-4.5625 0,-1.484375 0.703125,-3.625 2.625,-3.625 0.34375,0 1.359375,0 2.046875,1.421875 0.359375,0.796875 0.359375,1.65625 0.359375,2.6875 0,1.109375 0,1.9375 -0.421875,2.765625 -0.46875,0.84375 -1.125,1.3125 -2.078125,1.3125 z m 0,0"
               id="path8701" />
          </g>
        </g>
      </g>
    </g>
    <g
       inkscape:label=""
       transform="translate(73.525497,61.626805)"
       id="g9043">
      <g
         fill="#000000"
         fill-opacity="1"
         id="g9041"
         transform="matrix(0.352778,0,0,0.352778,-0.336241,0.234729)">
        <g
           id="g9039"
           transform="translate(0,13.319)">
          <path
             d="m 9.3125,-12.875 v -0.453125 H 4.46875 c -2.421875,0 -2.46875,-0.265625 -2.546875,-0.65625 h -0.375 L 0.953125,-10.125 h 0.375 c 0.0625,-0.390625 0.203125,-1.4375 0.453125,-1.828125 0.125,-0.171875 1.640625,-0.171875 2,-0.171875 H 8.328125 L 6.03125,-8.71875 C 4.5,-6.421875 3.453125,-3.328125 3.453125,-0.625 c 0,0.25 0,0.953125 0.734375,0.953125 0.75,0 0.75,-0.703125 0.75,-0.96875 V -1.59375 c 0,-3.390625 0.578125,-5.609375 1.53125,-7.046875 z m 0,0"
             id="path9037" />
        </g>
      </g>
    </g>
    <g
       inkscape:label=""
       transform="translate(83.472352,61.682841)"
       id="g9386">
      <g
         clip-path="url(#clipPath3728)"
         id="g9384"
         transform="matrix(0.352778,0,0,0.352778,-0.242535,0.118974)">
        <g
           fill="#000000"
           fill-opacity="1"
           id="g9382">
          <g
             id="g9380"
             transform="translate(0,13.319)">
            <path
               d="m 5.625,-7.4375 c 1.296875,-0.65625 2.609375,-1.65625 2.609375,-3.234375 0,-1.890625 -1.8125,-2.984375 -3.484375,-2.984375 -1.875,0 -3.53125,1.359375 -3.53125,3.25 0,0.515625 0.125,1.40625 0.921875,2.1875 C 2.359375,-8.015625 3.21875,-7.390625 3.78125,-7 2.84375,-6.53125 0.6875,-5.390625 0.6875,-3.125 c 0,2.140625 2.015625,3.453125 4.015625,3.453125 2.21875,0 4.078125,-1.59375 4.078125,-3.6875 0,-1.890625 -1.265625,-2.75 -2.09375,-3.3125 z M 2.90625,-9.25 C 2.75,-9.359375 1.921875,-10 1.921875,-10.96875 c 0,-1.265625 1.296875,-2.203125 2.78125,-2.203125 1.640625,0 2.84375,1.15625 2.84375,2.5 0,1.90625 -2.15625,3.015625 -2.265625,3.015625 -0.015625,0 -0.03125,0 -0.203125,-0.125 z m 3.8125,4.234375 c 0.296875,0.21875 1.296875,0.90625 1.296875,2.171875 0,1.515625 -1.53125,2.671875 -3.265625,2.671875 -1.875,0 -3.296875,-1.34375 -3.296875,-2.96875 0,-1.625 1.25,-3 2.671875,-3.640625 z m 0,0"
               id="path9378" />
          </g>
        </g>
      </g>
    </g>
    <g
       inkscape:label=""
       transform="translate(93.508181,61.681)"
       id="g9746">
      <g
         clip-path="url(#clipPath6582)"
         id="g9744"
         transform="matrix(0.352778,0,0,0.352778,-0.275608,0.118974)">
        <g
           fill="#000000"
           fill-opacity="1"
           id="g9742">
          <g
             id="g9740"
             transform="translate(0,13.319)">
            <path
               d="m 7.265625,-6.109375 c 0,4.546875 -1.875,5.9375 -3.421875,5.9375 -0.484375,0 -1.640625,-0.0625 -2.109375,-0.859375 0.53125,0.078125 0.9375,-0.203125 0.9375,-0.71875 0,-0.5625 -0.46875,-0.75 -0.75,-0.75 -0.1875,0 -0.75,0.078125 -0.75,0.78125 0,1.40625 1.21875,2.046875 2.71875,2.046875 2.375,0 4.78125,-2.59375 4.78125,-7.140625 0,-5.65625 -2.3125,-6.84375 -3.875,-6.84375 -2.046875,0 -4.015625,1.796875 -4.015625,4.5625 0,2.5625 1.671875,4.46875 3.78125,4.46875 1.734375,0 2.5,-1.609375 2.703125,-2.296875 z m -2.65625,1.15625 c -0.5625,0 -1.34375,-0.109375 -1.984375,-1.34375 C 2.1875,-7.109375 2.1875,-8.0625 2.1875,-9.0625 c 0,-1.21875 0,-2.078125 0.578125,-2.984375 0.296875,-0.421875 0.828125,-1.125 2.03125,-1.125 2.4375,0 2.4375,3.734375 2.4375,4.5625 0,1.46875 -0.671875,3.65625 -2.625,3.65625 z m 0,0"
               id="path9738" />
          </g>
        </g>
      </g>
    </g>
    <g
       inkscape:label=""
       transform="translate(102.01589,61.679159)"
       id="g10116">
      <g
         clip-path="url(#clipPath5634)"
         id="g21"
         transform="matrix(0.352778,0,0,0.352778,-0.633898,0.118974)">
        <g
           fill="#000000"
           fill-opacity="1"
           id="g19">
          <g
             id="use15"
             transform="translate(0,13.319)">
            <path
               d="m 5.5,-13.203125 c 0,-0.4375 -0.03125,-0.453125 -0.3125,-0.453125 C 4.375,-12.6875 3.15625,-12.375 2,-12.328125 c -0.0625,0 -0.15625,0 -0.1875,0.03125 -0.015625,0.04687 -0.015625,0.09375 -0.015625,0.515625 0.640625,0 1.71875,-0.109375 2.546875,-0.609375 v 10.875 c 0,0.734375 -0.046875,0.984375 -1.828125,0.984375 H 1.90625 V 0 C 2.890625,-0.015625 3.921875,-0.046875 4.921875,-0.046875 5.90625,-0.046875 6.9375,-0.015625 7.9375,0 V -0.53125 H 7.3125 C 5.53125,-0.53125 5.5,-0.765625 5.5,-1.515625 Z m 0,0"
               id="path27" />
          </g>
          <g
             id="use17"
             transform="translate(9.4758224,13.319)">
            <path
               d="m 8.671875,-6.625 c 0,-1.265625 -0.015625,-3.40625 -0.890625,-5.0625 -0.765625,-1.453125 -1.984375,-1.96875 -3.046875,-1.96875 -1,0 -2.25,0.453125 -3.046875,1.9375 -0.8125,1.5625 -0.90625,3.484375 -0.90625,5.09375 0,1.171875 0.03125,2.96875 0.671875,4.53125 0.875,2.140625 2.46875,2.421875 3.28125,2.421875 C 5.6875,0.328125 7.125,-0.0625 7.96875,-2.03125 8.59375,-3.453125 8.671875,-5.125 8.671875,-6.625 Z M 4.734375,0 C 3.40625,0 2.625,-1.140625 2.328125,-2.703125 c -0.21875,-1.21875 -0.21875,-3 -0.21875,-4.15625 0,-1.59375 0,-2.90625 0.265625,-4.171875 0.390625,-1.75 1.546875,-2.296875 2.359375,-2.296875 0.84375,0 1.9375,0.5625 2.328125,2.25 0.265625,1.1875 0.296875,2.5625 0.296875,4.21875 0,1.34375 0,3 -0.25,4.21875 C 6.671875,-0.390625 5.453125,0 4.734375,0 Z m 0,0"
               id="path31" />
          </g>
        </g>
      </g>
    </g>
    <g
       inkscape:label=""
       transform="translate(112.24543,61.677549)"
       id="g10507">
      <g
         clip-path="url(#clipPath6222)"
         id="g18"
         transform="matrix(0.352778,0,0,0.352778,-0.633898,0.118974)">
        <g
           fill="#000000"
           fill-opacity="1"
           id="g10504">
          <g
             id="g10500"
             transform="translate(0,13.319)">
            <path
               d="m 5.5,-13.203125 c 0,-0.4375 -0.03125,-0.453125 -0.3125,-0.453125 C 4.375,-12.6875 3.15625,-12.375 2,-12.328125 c -0.0625,0 -0.15625,0 -0.1875,0.03125 -0.015625,0.04687 -0.015625,0.09375 -0.015625,0.515625 0.640625,0 1.71875,-0.109375 2.546875,-0.609375 v 10.875 c 0,0.734375 -0.046875,0.984375 -1.828125,0.984375 H 1.90625 V 0 C 2.890625,-0.015625 3.921875,-0.046875 4.921875,-0.046875 5.90625,-0.046875 6.9375,-0.015625 7.9375,0 V -0.53125 H 7.3125 C 5.53125,-0.53125 5.5,-0.765625 5.5,-1.515625 Z m 0,0"
               id="path24" />
          </g>
          <g
             id="use14"
             transform="translate(9.4758224,13.319)">
            <path
               d="m 5.5,-13.203125 c 0,-0.4375 -0.03125,-0.453125 -0.3125,-0.453125 C 4.375,-12.6875 3.15625,-12.375 2,-12.328125 c -0.0625,0 -0.15625,0 -0.1875,0.03125 -0.015625,0.04687 -0.015625,0.09375 -0.015625,0.515625 0.640625,0 1.71875,-0.109375 2.546875,-0.609375 v 10.875 c 0,0.734375 -0.046875,0.984375 -1.828125,0.984375 H 1.90625 V 0 C 2.890625,-0.015625 3.921875,-0.046875 4.921875,-0.046875 5.90625,-0.046875 6.9375,-0.015625 7.9375,0 V -0.53125 H 7.3125 C 5.53125,-0.53125 5.5,-0.765625 5.5,-1.515625 Z m 0,0"
               id="path28" />
          </g>
        </g>
      </g>
    </g>
    <g
       inkscape:label=""
       transform="translate(122.59582,65.560625)"
       id="g11369">
      <g
         clip-path="url(#clipPath4393)"
         id="g11359"
         transform="matrix(0.352778,0,0,0.352778,0.225998,0.075274)">
        <g
           fill="#000000"
           fill-opacity="1"
           id="g11357">
          <g
             id="g11355"
             transform="translate(0,8.8959999)">
            <path
               d="M 0.890625,2.625 C 0.75,3.25 0.65625,3.40625 -0.1875,3.40625 c -0.25,0 -0.453125,0 -0.453125,0.390625 C -0.640625,3.84375 -0.625,4 -0.390625,4 -0.125,4 0.171875,3.96875 0.4375,3.96875 H 1.328125 C 1.75,3.96875 2.8125,4 3.25,4 3.359375,4 3.609375,4 3.609375,3.640625 3.609375,3.40625 3.46875,3.40625 3.125,3.40625 c -0.953125,0 -1.015625,-0.140625 -1.015625,-0.3125 0,-0.25 0.921875,-3.796875 1.046875,-4.265625 0.234375,0.578125 0.796875,1.375 1.859375,1.375 2.34375,0 4.859375,-3.03125 4.859375,-6.0625 0,-1.90625 -1.078125,-3.25 -2.625,-3.25 -1.328125,0 -2.4375,1.28125 -2.671875,1.5625 -0.15625,-1.03125 -0.96875,-1.5625 -1.796875,-1.5625 -0.59375,0 -1.0625,0.296875 -1.453125,1.078125 -0.375,0.734375 -0.671875,2 -0.671875,2.078125 0,0.09375 0.09375,0.1875 0.234375,0.1875 0.15625,0 0.1875,-0.015625 0.3125,-0.5 0.3125,-1.21875 0.703125,-2.4375 1.53125,-2.4375 0.46875,0 0.625,0.34375 0.625,0.953125 0,0.5 -0.046875,0.703125 -0.140625,1.078125 z M 4.46875,-6.4375 C 4.609375,-7.015625 5.1875,-7.625 5.515625,-7.90625 5.75,-8.125 6.421875,-8.703125 7.203125,-8.703125 c 0.921875,0 1.328125,0.921875 1.328125,1.984375 0,1 -0.578125,3.328125 -1.09375,4.40625 -0.515625,1.109375 -1.46875,2.109375 -2.421875,2.109375 -1.40625,0 -1.625,-1.78125 -1.625,-1.859375 0,-0.0625 0.03125,-0.234375 0.0625,-0.328125 z m 0,0"
               id="path11353" />
          </g>
        </g>
      </g>
      <g
         clip-path="url(#clipPath2722)"
         id="g11367"
         transform="matrix(0.352778,0,0,0.352778,0.225998,0.075274)">
        <g
           fill="#000000"
           fill-opacity="1"
           id="g11365">
          <g
             id="g11363"
             transform="translate(10.154,11.996)">
            <path
               d="m 4.03125,-9.59375 c 0.015625,-0.0625 0.046875,-0.140625 0.046875,-0.21875 0,-0.140625 -0.140625,-0.140625 -0.171875,-0.140625 -0.015625,0 -0.53125,0.046875 -0.796875,0.0625 C 2.875,-9.875 2.65625,-9.84375 2.390625,-9.828125 c -0.34375,0.03125 -0.4375,0.046875 -0.4375,0.296875 0,0.15625 0.140625,0.15625 0.28125,0.15625 0.734375,0 0.734375,0.125 0.734375,0.265625 0,0.0625 0,0.09375 -0.078125,0.34375 L 0.84375,-0.5625 c -0.0625,0.21875 -0.0625,0.25 -0.0625,0.328125 0,0.328125 0.25,0.375 0.390625,0.375 0.40625,0 0.484375,-0.3125 0.609375,-0.75 l 0.671875,-2.6875 c 1.03125,0.109375 1.65625,0.546875 1.65625,1.234375 0,0.078125 0,0.140625 -0.046875,0.359375 C 4,-1.484375 4,-1.3125 4,-1.25 c 0,0.828125 0.546875,1.390625 1.28125,1.390625 0.65625,0 1,-0.59375 1.109375,-0.796875 0.3125,-0.53125 0.5,-1.34375 0.5,-1.390625 0,-0.078125 -0.0625,-0.140625 -0.15625,-0.140625 -0.125,0 -0.140625,0.0625 -0.1875,0.296875 -0.203125,0.75 -0.515625,1.75 -1.234375,1.75 -0.296875,0 -0.484375,-0.140625 -0.484375,-0.6875 0,-0.28125 0.0625,-0.59375 0.125,-0.8125 C 5,-1.890625 5,-1.90625 5,-2.078125 c 0,-0.84375 -0.75,-1.328125 -2.078125,-1.5 0.515625,-0.3125 1.03125,-0.875 1.234375,-1.078125 0.828125,-0.921875 1.375,-1.375 2.046875,-1.375 0.328125,0 0.40625,0.078125 0.515625,0.171875 C 6.1875,-5.8125 5.984375,-5.4375 5.984375,-5.15625 c 0,0.34375 0.265625,0.46875 0.46875,0.46875 0.390625,0 0.734375,-0.328125 0.734375,-0.796875 0,-0.40625 -0.328125,-0.84375 -0.984375,-0.84375 -0.78125,0 -1.421875,0.5625 -2.4375,1.703125 -0.15625,0.171875 -0.6875,0.71875 -1.21875,0.921875 z m 0,0"
               id="path11361" />
          </g>
        </g>
      </g>
    </g>
  </g>
</svg>
